<?xml version="1.0" encoding="UTF-8" standalone="no"?>
<!-- Created with Inkscape (http://www.inkscape.org/) -->

<svg
   xmlns:dc="http://purl.org/dc/elements/1.1/"
   xmlns:cc="http://creativecommons.org/ns#"
   xmlns:rdf="http://www.w3.org/1999/02/22-rdf-syntax-ns#"
   xmlns:svg="http://www.w3.org/2000/svg"
   xmlns="http://www.w3.org/2000/svg"
   xmlns:sodipodi="http://sodipodi.sourceforge.net/DTD/sodipodi-0.dtd"
   xmlns:inkscape="http://www.inkscape.org/namespaces/inkscape"
   width="210mm"
   height="297mm"
   viewBox="0 0 210 297"
   version="1.1"
   id="svg8"
   inkscape:version="0.92.4 (5da689c313, 2019-01-14)"
   sodipodi:docname="ikony.svg">
  <defs
     id="defs2" />
  <sodipodi:namedview
     id="base"
     pagecolor="#ffffff"
     bordercolor="#666666"
     borderopacity="1.0"
     inkscape:pageopacity="0.0"
     inkscape:pageshadow="2"
     inkscape:zoom="0.7"
     inkscape:cx="325.88887"
     inkscape:cy="723.17004"
     inkscape:document-units="mm"
     inkscape:current-layer="layer1"
     showgrid="false"
     inkscape:window-width="1920"
     inkscape:window-height="1027"
     inkscape:window-x="-8"
     inkscape:window-y="-8"
     inkscape:window-maximized="1" />
  <metadata
     id="metadata5">
    <rdf:RDF>
      <cc:Work
         rdf:about="">
        <dc:format>image/svg+xml</dc:format>
        <dc:type
           rdf:resource="http://purl.org/dc/dcmitype/StillImage" />
        <dc:title></dc:title>
      </cc:Work>
    </rdf:RDF>
  </metadata>
  <g
     inkscape:label="Vrstva 1"
     inkscape:groupmode="layer"
     id="layer1">
    <circle
       r="16.704985"
       cy="77.853096"
       cx="175.02161"
       id="circle5781"
       style="opacity:1;fill:#f3385f;fill-opacity:1;stroke:none;stroke-width:0.76375973;stroke-linecap:round;stroke-linejoin:round;stroke-miterlimit:4;stroke-dasharray:none;stroke-dashoffset:0;stroke-opacity:1"
       inkscape:export-filename="C:\Users\Iteza\Desktop\IKONY\B04_formular.png"
       inkscape:export-xdpi="59.120209"
       inkscape:export-ydpi="59.120209" />
    <circle
       style="opacity:1;fill:#ffffff;fill-opacity:1;stroke:none;stroke-width:0.685368;stroke-linecap:round;stroke-linejoin:round;stroke-miterlimit:4;stroke-dasharray:none;stroke-dashoffset:0;stroke-opacity:1"
       id="circle5783"
       cx="175.02161"
       cy="77.853096"
       r="14.990396"
       inkscape:export-filename="C:\Users\Iteza\Desktop\IKONY\B04_formular.png"
       inkscape:export-xdpi="59.120209"
       inkscape:export-ydpi="59.120209" />
    <circle
       style="opacity:1;fill:#f3385f;fill-opacity:1;stroke:none;stroke-width:0.76375973;stroke-linecap:round;stroke-linejoin:round;stroke-miterlimit:4;stroke-dasharray:none;stroke-dashoffset:0;stroke-opacity:1"
       id="circle5785"
       cx="130.93291"
       cy="78.440971"
       r="16.704985"
       inkscape:export-filename="C:\Users\Iteza\Desktop\IKONY\B03_mista.png"
       inkscape:export-xdpi="59.120209"
       inkscape:export-ydpi="59.120209" />
    <circle
       r="14.990396"
       cy="78.440971"
       cx="130.93291"
       id="circle5787"
       style="opacity:1;fill:#ffffff;fill-opacity:1;stroke:none;stroke-width:0.685368;stroke-linecap:round;stroke-linejoin:round;stroke-miterlimit:4;stroke-dasharray:none;stroke-dashoffset:0;stroke-opacity:1"
       inkscape:export-filename="C:\Users\Iteza\Desktop\IKONY\B03_mista.png"
       inkscape:export-xdpi="59.120209"
       inkscape:export-ydpi="59.120209" />
    <circle
       r="16.704985"
       cy="78.440948"
       cx="83.502342"
       id="circle5789"
       style="opacity:1;fill:#f3385f;fill-opacity:1;stroke:none;stroke-width:0.76375973;stroke-linecap:round;stroke-linejoin:round;stroke-miterlimit:4;stroke-dasharray:none;stroke-dashoffset:0;stroke-opacity:1"
       inkscape:export-filename="C:\Users\Iteza\Desktop\IKONY\B02_prihlasit_se.png"
       inkscape:export-xdpi="59.120209"
       inkscape:export-ydpi="59.120209" />
    <circle
       style="opacity:1;fill:#ffffff;fill-opacity:1;stroke:none;stroke-width:0.685368;stroke-linecap:round;stroke-linejoin:round;stroke-miterlimit:4;stroke-dasharray:none;stroke-dashoffset:0;stroke-opacity:1"
       id="circle5791"
       cx="83.502342"
       cy="78.440948"
       r="14.990396"
       inkscape:export-filename="C:\Users\Iteza\Desktop\IKONY\B02_prihlasit_se.png"
       inkscape:export-xdpi="59.120209"
       inkscape:export-ydpi="59.120209" />
    <circle
       style="opacity:1;fill:#f3385f;fill-opacity:1;stroke:none;stroke-width:0.76375973;stroke-linecap:round;stroke-linejoin:round;stroke-miterlimit:4;stroke-dasharray:none;stroke-dashoffset:0;stroke-opacity:1"
       id="circle5793"
       cx="37.400997"
       cy="78.440971"
       r="16.704985"
       inkscape:export-filename="C:\Users\Iteza\Desktop\IKONY\B01_hledate.png"
       inkscape:export-xdpi="59.120209"
       inkscape:export-ydpi="59.120209" />
    <circle
       r="14.990396"
       cy="78.440971"
       cx="37.400997"
       id="circle5795"
       style="opacity:1;fill:#ffffff;fill-opacity:1;stroke:none;stroke-width:0.685368;stroke-linecap:round;stroke-linejoin:round;stroke-miterlimit:4;stroke-dasharray:none;stroke-dashoffset:0;stroke-opacity:1"
       inkscape:export-filename="C:\Users\Iteza\Desktop\IKONY\B01_hledate.png"
       inkscape:export-xdpi="59.120209"
       inkscape:export-ydpi="59.120209" />
    <circle
       style="opacity:1;fill:#000000;fill-opacity:1;stroke:none;stroke-width:0.76375973;stroke-linecap:round;stroke-linejoin:round;stroke-miterlimit:4;stroke-dasharray:none;stroke-dashoffset:0;stroke-opacity:1"
       id="circle5777"
       cx="175.02161"
       cy="36.285213"
       r="16.704985"
       inkscape:export-filename="C:\Users\Iteza\Desktop\IKONY\A01_soc_syst.png"
       inkscape:export-xdpi="59.120209"
       inkscape:export-ydpi="59.120209" />
    <circle
       r="14.990396"
       cy="36.285213"
       cx="175.02161"
       id="circle5779"
       style="opacity:1;fill:#ffffff;fill-opacity:1;stroke:none;stroke-width:0.685368;stroke-linecap:round;stroke-linejoin:round;stroke-miterlimit:4;stroke-dasharray:none;stroke-dashoffset:0;stroke-opacity:1"
       inkscape:export-filename="C:\Users\Iteza\Desktop\IKONY\A01_soc_syst.png"
       inkscape:export-xdpi="59.120209"
       inkscape:export-ydpi="59.120209" />
    <circle
       r="16.704985"
       cy="36.873096"
       cx="130.93291"
       id="circle5773"
       style="opacity:1;fill:#000000;fill-opacity:1;stroke:none;stroke-width:0.76375973;stroke-linecap:round;stroke-linejoin:round;stroke-miterlimit:4;stroke-dasharray:none;stroke-dashoffset:0;stroke-opacity:1"
       inkscape:export-filename="C:\Users\Iteza\Desktop\IKONY\A03_leky.png"
       inkscape:export-xdpi="59.120209"
       inkscape:export-ydpi="59.120209" />
    <circle
       style="opacity:1;fill:#ffffff;fill-opacity:1;stroke:none;stroke-width:0.685368;stroke-linecap:round;stroke-linejoin:round;stroke-miterlimit:4;stroke-dasharray:none;stroke-dashoffset:0;stroke-opacity:1"
       id="circle5775"
       cx="130.93291"
       cy="36.873096"
       r="14.990396"
       inkscape:export-filename="C:\Users\Iteza\Desktop\IKONY\A03_leky.png"
       inkscape:export-xdpi="59.120209"
       inkscape:export-ydpi="59.120209" />
    <path
       style="opacity:1;fill:#e4e4e4;fill-opacity:1;stroke:none;stroke-width:0.30686623;stroke-linecap:round;stroke-linejoin:round;stroke-miterlimit:4;stroke-dasharray:none;stroke-dashoffset:0;stroke-opacity:1"
       d="m 123.86885,27.1444 0.51804,-1.604375 h 6.21986 v 13.155256 l -2.37284,2.805854 2.37284,3.013666 V 47.19066 H 122.4482 V 26.680227 Z"
       id="rect5840"
       inkscape:connector-curvature="0"
       sodipodi:nodetypes="cccccccccc"
       inkscape:export-filename="C:\Users\Iteza\Desktop\IKONY\A03_leky.png"
       inkscape:export-xdpi="59.120209"
       inkscape:export-ydpi="59.120209" />
    <circle
       style="opacity:1;fill:#000000;fill-opacity:1;stroke:none;stroke-width:0.76375973;stroke-linecap:round;stroke-linejoin:round;stroke-miterlimit:4;stroke-dasharray:none;stroke-dashoffset:0;stroke-opacity:1"
       id="circle5769"
       cx="83.502342"
       cy="36.873062"
       r="16.704985"
       inkscape:export-filename="C:\Users\Iteza\Desktop\IKONY\A02_ekonomika.png"
       inkscape:export-xdpi="59.120209"
       inkscape:export-ydpi="59.120209" />
    <circle
       r="14.990396"
       cy="36.873062"
       cx="83.502342"
       id="circle5771"
       style="opacity:1;fill:#ffffff;fill-opacity:1;stroke:none;stroke-width:0.685368;stroke-linecap:round;stroke-linejoin:round;stroke-miterlimit:4;stroke-dasharray:none;stroke-dashoffset:0;stroke-opacity:1" />
    <rect
       style="opacity:1;fill:#e4e4e4;fill-opacity:1;stroke:none;stroke-width:0.28098044;stroke-linecap:round;stroke-linejoin:round;stroke-miterlimit:4;stroke-dasharray:none;stroke-dashoffset:0;stroke-opacity:1"
       id="rect5811"
       width="8.1585541"
       height="18.152012"
       x="75.255974"
       y="27.350868" />
    <circle
       r="16.704985"
       cy="36.873096"
       cx="37.400997"
       id="circle5767"
       style="opacity:1;fill:#000000;fill-opacity:1;stroke:none;stroke-width:0.76375973;stroke-linecap:round;stroke-linejoin:round;stroke-miterlimit:4;stroke-dasharray:none;stroke-dashoffset:0;stroke-opacity:1"
       inkscape:export-filename="C:\Users\Iteza\Desktop\IKONY\A01_ochranne_pomucky.png"
       inkscape:export-xdpi="59.120209"
       inkscape:export-ydpi="59.120209" />
    <path
       style="opacity:1;fill:#ffffff;fill-opacity:1;stroke:none;stroke-width:0.685368;stroke-linecap:round;stroke-linejoin:round;stroke-miterlimit:4;stroke-dasharray:none;stroke-dashoffset:0;stroke-opacity:1"
       d="m 52.391395,36.87309 c 6e-6,8.278961 -6.711425,14.990408 -14.990397,14.990408 -8.278974,0 -14.990403,-6.711447 -14.990398,-14.990408 8e-6,-8.278962 6.711434,-14.990383 14.990398,-14.990383 8.278962,0 14.99039,6.711421 14.990397,14.990383 z"
       id="path5761"
       inkscape:connector-curvature="0"
       sodipodi:nodetypes="sssss" />
    <path
       inkscape:connector-curvature="0"
       style="opacity:1;fill:#e4e4e4;fill-opacity:1;stroke:none;stroke-width:0.71672463;stroke-linecap:round;stroke-linejoin:round;stroke-miterlimit:4;stroke-dasharray:none;stroke-dashoffset:0;stroke-opacity:1"
       d="m 29.748008,29.484197 a 10.809171,10.809171 0 0 0 -3.230523,7.702786 10.809171,10.809171 0 0 0 8.052668,10.438087 L 33.939104,36.001503 32.70326,32.505486 32.8056,29.844795 35.819258,29.484197 Z"
       id="rect5809" />
    <path
       style="opacity:1;fill:#000000;fill-opacity:1;stroke:none;stroke-width:0.5184266;stroke-miterlimit:4;stroke-dasharray:none;stroke-dashoffset:0;stroke-opacity:1"
       d="M 37.400998,23.352291 A 13.52075,13.52075 0 0 0 23.880267,36.873167 13.52075,13.52075 0 0 0 37.400998,50.393888 13.52075,13.52075 0 0 0 50.921726,36.873167 13.52075,13.52075 0 0 0 37.400998,23.352291 Z m -1.581706,6.131949 c 0.08854,0 0.178732,0.0044 0.270582,0.01166 0.80234,0.06452 1.363545,0.347891 1.989055,1.004659 0.388587,0.407976 0.518043,0.504351 0.951865,0.708197 0.354806,0.166726 0.47913,0.248482 0.423425,0.278499 -0.114069,0.06133 -1.399539,0.01996 -1.518751,-0.04876 -0.05536,-0.03199 -0.210736,-0.180672 -0.345195,-0.330601 -0.345446,-0.385165 -1.150184,-0.787438 -1.627517,-0.813489 -0.95082,-0.05192 -1.572904,0.354085 -1.940432,1.266516 -0.485711,1.20586 -0.189065,2.100328 1.000353,3.016335 0.2947,0.226942 0.901091,0.663301 1.347425,0.969665 0.09232,0.06338 0.179396,0.12476 0.263752,0.185131 -0.413251,0.09772 -0.835654,0.145341 -1.261026,0.133391 -1.078278,-0.769838 -1.503359,-1.155107 -1.86314,-1.672497 -0.53871,-0.774788 -0.650708,-1.540478 -0.369975,-2.531995 0.400985,-1.416211 1.351419,-2.183794 2.679579,-2.176821 z m 7.800168,1.975517 c 0.04404,2.06e-4 0.09646,0.0026 0.163019,0.0049 0.263151,0.0114 0.332162,0.02603 0.755491,0.157809 1.13793,0.354215 1.319942,0.39289 1.604475,0.341565 0.09403,-0.01685 0.224886,-0.05682 0.290677,-0.08868 0.06579,-0.03193 0.119484,-0.04928 0.119484,-0.03857 0,0.04699 -0.190729,0.4586 -0.305275,0.658764 -0.342242,0.598135 -0.749254,1.016427 -1.232228,1.265868 -0.338148,0.174632 -0.551338,0.223909 -0.95561,0.226242 -0.186989,0 -0.389644,-0.0078 -0.450347,-0.01866 l -0.110378,-0.01944 0.07743,0.08813 c 0.105134,0.119731 0.253075,0.343173 0.367831,0.55565 0.246906,0.457123 0.477847,0.631988 0.733387,0.555079 0.06181,-0.01866 0.112382,-0.03095 0.112382,-0.02732 0,0.01685 -0.30392,0.215924 -0.415516,0.27207 -0.346851,0.17445 -0.789279,0.2265 -1.145824,0.134868 -0.351252,-0.09026 -0.758393,-0.333348 -1.106312,-0.660631 l -0.190612,-0.179375 v 0.796355 c 0,0.87544 -0.02017,1.076461 -0.165835,1.651888 -0.280251,1.106997 -0.819953,1.842229 -2.130912,2.902749 -0.309601,0.250451 -0.842433,0.651999 -1.845992,1.391482 -1.908754,1.406491 -2.790302,2.284991 -3.30112,3.289469 l -0.142257,0.279847 -0.06992,-0.254652 c -0.254973,-0.930109 -0.754664,-1.997549 -1.310858,-2.800022 -0.402439,-0.580637 -0.936838,-1.150129 -1.509505,-1.608884 -0.57331,-0.459249 -0.837057,-0.777407 -1.107517,-1.335778 -0.227641,-0.469955 -0.366981,-0.934698 -0.464547,-1.548748 -0.04076,-0.25657 -0.0697,-0.539242 -0.0868,-0.836274 1.098958,0.416789 1.484056,0.847938 2.813665,0.695495 -0.938137,-0.333634 -2.059168,-0.887443 -2.829337,-1.602482 0.0078,-0.383403 0.03323,-0.770693 0.07702,-1.140331 0.03205,-0.270516 0.126011,-0.8778 0.137702,-0.890113 0.0045,-0.0047 0.08554,0.06496 0.180031,0.154854 0.690487,0.65682 1.742211,1.375853 2.576705,1.761458 1.424345,0.658195 2.760994,0.869013 3.948777,0.62276 0.799061,-0.165663 1.838558,-0.687511 2.611665,-1.311127 0.517008,-0.417048 1.020548,-0.895219 1.397924,-1.325331 0.03652,0.09109 0.08534,0.179142 0.147614,0.261883 0.514627,0.837933 1.906967,0.731163 2.288843,-0.174555 0.321095,-0.639349 0.02636,-1.386713 -0.536882,-1.719258 0.231415,-0.223856 0.414816,-0.338973 0.681684,-0.428661 0.138744,-0.04655 0.195649,-0.06001 0.32778,-0.06001 z m -1.80688,0.434545 c 0.01796,0 0.03591,0.0026 0.05385,0.0026 1.051525,-0.0073 1.329941,1.614977 0.344793,1.966548 -0.982468,0.485507 -1.931818,-0.947321 -1.125066,-1.668634 0.189842,-0.191532 0.457107,-0.301983 0.726424,-0.29965 v 0 z m -1.052595,7.739746 c 0.238896,0.183808 0.473435,0.384025 0.671635,0.579342 0.55025,0.542326 1.270865,1.402318 1.228341,1.465851 -0.01537,0.02126 -0.199451,0.194591 -0.410832,0.38418 -1.088574,0.976145 -2.631274,1.601264 -4.334961,1.756636 -0.324527,0.02965 -0.608667,0.04316 -0.631449,0.03002 -0.04732,-0.02735 -0.115837,-0.696402 -0.149625,-1.337514 1.203094,-0.957612 2.536171,-1.805783 3.626891,-2.878512 z m 2.27638,2.528496 c 0.0083,0 0.01491,1.37e-4 0.01983,0.0029 0.03927,0.02281 0.129023,0.146896 0.199325,0.275699 0.11235,0.205815 0.109727,0.265512 -0.02278,0.492401 -0.08221,0.142386 -0.324253,0.406447 -0.536077,0.587766 -1.066087,0.912509 -3.13802,1.716537 -4.320494,1.67641 -0.612153,-0.02074 -0.919059,-0.192621 -0.969816,-0.542896 l -0.03617,-0.2497 0.354033,-0.02074 c 1.860239,-0.107988 3.83967,-0.900481 4.983695,-1.995502 0.133274,-0.127558 0.270035,-0.220435 0.328449,-0.226371 z"
       id="circle4796"
       inkscape:connector-curvature="0" />
    <path
       style="opacity:1;fill:#000000;fill-opacity:1;stroke:none;stroke-width:0.5184266;stroke-miterlimit:4;stroke-dasharray:none;stroke-dashoffset:0;stroke-opacity:1"
       d="m 130.93292,23.352291 a 13.52075,13.52075 0 0 0 -13.52073,13.520876 13.52075,13.52075 0 0 0 13.52073,13.520721 13.52075,13.52075 0 0 0 13.52073,-13.520721 13.52075,13.52075 0 0 0 -13.52073,-13.520876 z m -0.32618,2.187708 c 0.088,0 0.18554,0 0.29135,0.0026 0.62966,0.0078 0.67634,0.0114 0.80318,0.062 0.1939,0.07748 0.38617,0.22943 0.49334,0.389935 0.16324,0.244464 0.1714,0.293663 0.18244,1.110469 l 0.01,0.727508 h -1.55158 -1.55156 V 27.11011 c 0,-0.664105 0.004,-0.733807 0.0481,-0.865332 0.0628,-0.186529 0.13106,-0.291252 0.28009,-0.430268 0.1363,-0.127144 0.30845,-0.215847 0.49375,-0.254366 0.0589,-0.01218 0.23711,-0.01866 0.50111,-0.01918 z m -1.17623,3.025045 h 1.3915 1.39162 l 0.0127,0.124319 c 0.007,0.0683 0.0243,0.24659 0.0386,0.396234 0.10627,1.114772 0.40426,2.21604 0.90807,3.356578 0.21431,0.485144 0.77751,1.536305 1.06612,1.989851 0.029,0.04552 0.32974,0.519282 0.66842,1.052717 0.33868,0.533513 0.75095,1.181002 0.9161,1.438919 0.30884,0.482292 0.38335,0.638805 0.46937,0.986021 0.0492,0.198454 0.0499,0.242183 0.0583,3.359249 0.006,2.243258 7.8e-4,3.226013 -0.0183,3.392221 -0.0675,0.591446 -0.32408,1.138724 -0.73125,1.560127 -0.3232,0.334567 -0.68065,0.566433 -1.07818,0.699228 -0.4466,0.149229 -0.32653,0.144589 -3.7232,0.142256 -2.55661,-0.0026 -3.12199,-0.0078 -3.27553,-0.03562 -0.83227,-0.150369 -1.57185,-0.707574 -1.94258,-1.4637 -0.12203,-0.24887 -0.18577,-0.437526 -0.24338,-0.71999 -0.0383,-0.187853 -0.0415,-0.44704 -0.0415,-3.408967 0,-3.477164 -0.005,-3.342995 0.13247,-3.774767 0.0728,-0.229041 0.11545,-0.304265 0.62449,-1.09852 1.38495,-2.160958 1.44787,-2.262414 1.86207,-3.004411 0.89397,-1.601524 1.36113,-3.097418 1.49825,-4.796561 z m -2.96208,9.794063 v 3.181895 3.181895 h 4.3529 4.35292 v -3.181895 -3.181895 h -4.35292 z m 3.62233,1.305088 h 1.46959 v 1.188026 h 1.18802 v 1.469583 h -1.18802 v 1.188027 h -1.46959 v -1.188027 h -1.18802 v -1.469583 h 1.18802 z"
       id="circle4764"
       inkscape:connector-curvature="0"
       inkscape:export-filename="C:\Users\Iteza\Desktop\IKONY\A03_leky.png"
       inkscape:export-xdpi="59.120209"
       inkscape:export-ydpi="59.120209" />
    <path
       style="opacity:1;fill:#000000;fill-opacity:1;stroke:none;stroke-width:0.5184266;stroke-miterlimit:4;stroke-dasharray:none;stroke-dashoffset:0;stroke-opacity:1"
       d="M 83.502273,23.352265 A 13.52075,13.52075 0 0 0 69.981542,36.873141 13.52075,13.52075 0 0 0 83.502273,50.393862 13.52075,13.52075 0 0 0 97.023148,36.873141 13.52075,13.52075 0 0 0 83.502273,23.352265 Z M 77.73697,29.28488 h 5.75981 5.759945 l 0.21459,0.112783 c 0.970204,0.510314 1.619271,1.460694 1.619217,2.370688 -1.6e-5,0.236998 -0.01579,0.287078 -0.478345,1.516605 l -0.478341,1.271492 0.478074,1.279374 0.478075,1.279373 v 3.589508 3.589403 l -0.09939,0.0837 -0.09926,0.0836 h -7.409317 -7.409697 l -0.07917,-0.08546 h 1.38e-4 l -0.07917,-0.08546 v -3.588575 -3.588575 l 0.468166,-1.251248 c 0.257515,-0.688263 0.468162,-1.27533 0.468162,-1.304569 0,-0.02924 -0.210647,-0.614672 -0.468162,-1.300939 -0.438937,-1.169778 -0.468282,-1.261721 -0.467764,-1.471477 0.0023,-0.915178 0.59046,-1.798188 1.568985,-2.355808 z m 5.72927,1.308457 c -0.05253,0.0026 -0.104497,0.0067 -0.155386,0.01555 -0.288318,0.05021 -0.53779,0.176265 -0.730841,0.369301 -0.143656,0.143657 -0.337024,0.467881 -0.337024,0.565059 0,0.02359 0.392436,0.03427 1.259419,0.03427 0.86698,0 1.259284,-0.01063 1.259284,-0.03427 0,-0.07857 -0.171169,-0.387342 -0.287463,-0.518685 -0.24526,-0.27697 -0.640316,-0.441804 -1.007989,-0.431176 z m 0.03617,1.662205 c -3.729546,0 -6.781062,0.0096 -6.781062,0.02126 0,0.01167 0.162392,0.454972 0.360867,0.984933 l 0.360866,0.963521 h 1.609303 1.609302 l 0.169046,-0.110761 c 0.227416,-0.149126 0.501541,-0.224661 0.737809,-0.20325 l 0.185926,0.01685 0.123103,-0.165015 c 0.513722,-0.68803 1.403401,-0.691685 1.920203,-0.008 l 0.119487,0.158042 0.26884,0.0041 c 0.216472,0.0034 0.304985,0.02074 0.4545,0.08961 l 0.185659,0.08546 0.182576,-0.0836 c 0.367912,-0.168436 0.821761,-0.126625 1.123322,0.103557 l 0.147751,0.112783 h 1.640779 1.640914 l 0.360874,-0.963651 c 0.198472,-0.529962 0.360863,-0.973087 0.360863,-0.984803 0,-0.01167 -3.051388,-0.02126 -6.780928,-0.02126 z m -0.662394,1.66275 c -0.307627,0 -0.458764,0.09788 -0.596357,0.386201 -0.150691,0.315748 -0.241483,0.364013 -0.537818,0.286664 -0.452262,-0.118097 -0.848781,0.189848 -0.850595,0.660657 -5.19e-4,0.137124 -0.01612,0.186375 -0.07863,0.248871 -0.102332,0.102337 -0.222838,0.129736 -0.37279,0.08479 -0.06705,-0.02022 -0.167872,-0.03642 -0.2241,-0.03642 -0.233601,0 -0.518168,0.201642 -0.588855,0.417385 -0.08843,0.269893 -0.230568,0.361888 -0.455303,0.29457 -0.308612,-0.09246 -0.619471,-0.0127 -0.777192,0.199854 -0.07749,0.104359 -0.151632,0.284486 -0.151632,0.368367 0,0.03647 0.868227,0.04339 5.287493,0.04288 h 5.287629 l -0.08077,-0.06618 c -0.0444,-0.03645 -0.171185,-0.108817 -0.281703,-0.160738 -0.224971,-0.105655 -0.278659,-0.180568 -0.31117,-0.433612 -0.04693,-0.365231 -0.31399,-0.725564 -0.659446,-0.889698 -0.205875,-0.09783 -0.551075,-0.119938 -0.789515,-0.05062 -0.099,0.02877 -0.2094,0.05236 -0.245265,0.05236 -0.10699,0 -0.259262,-0.153428 -0.298714,-0.300998 -0.0233,-0.0872 -0.0849,-0.181942 -0.174407,-0.268027 -0.250291,-0.240705 -0.577802,-0.256154 -0.870687,-0.04114 -0.17,0.124915 -0.31841,0.1245 -0.489195,0 -0.193148,-0.142049 -0.380295,-0.179376 -0.605061,-0.120689 -0.298839,0.07802 -0.387767,0.03012 -0.541569,-0.29216 C 83.296615,34.012 83.153278,33.920188 82.840019,33.920188 Z m -5.400149,0.985113 -0.359796,0.960567 c -0.197863,0.528329 -0.359518,0.971609 -0.359259,0.984959 2.59e-4,0.01322 0.187395,0.02411 0.415788,0.02411 h 0.415252 l 0.0189,-0.182979 c 0.03676,-0.356159 0.308891,-0.763927 0.638953,-0.957352 0.212365,-0.124448 0.52063,-0.194773 0.743299,-0.169577 0.164909,0.01866 0.18703,0.014 0.204812,-0.04194 0.05531,-0.174243 0.46991,-0.508991 0.728032,-0.587766 0.0444,-0.01348 -0.487834,-0.02592 -1.182663,-0.02735 z m 10.573113,0 0.164359,0.157784 c 0.221729,0.212606 0.378081,0.46565 0.481694,0.780154 0.07678,0.233033 0.09889,0.268052 0.203607,0.321476 0.196522,0.100264 0.464989,0.338559 0.596491,0.529521 l 0.124575,0.180801 h 0.349749 c 0.192404,0 0.350021,-0.01089 0.350283,-0.02411 0,-0.01322 -0.161262,-0.456604 -0.359125,-0.984958 l -0.359796,-0.960567 h -0.775986 z m -5.838707,2.61554 0.01006,0.992865 0.01032,1.823358 h 2.615416 l 0.01019,-1.823358 0.01019,-0.992865 h -1.328001 z m 1.309116,0.560341 a 0.53004672,0.53004672 0 0 1 0.530047,0.53004 0.53004672,0.53004672 0 0 1 -0.3172,0.484755 c 0.07271,0.260872 0.187803,0.676884 0.187803,0.70983 h -0.79648 l 0.189275,-0.70646 a 0.53004672,0.53004672 0 0 1 -0.323495,-0.488125 0.53004672,0.53004672 0 0 1 0.53005,-0.53004 z m -6.880187,4.1217 c -0.03516,0 -0.04327,0.153091 -0.04327,0.807319 v 0.80719 h 0.807196 c 0.654228,0 0.80733,-0.0083 0.80733,-0.04339 0,-0.02385 -0.02838,-0.125874 -0.06309,-0.226786 -0.215497,-0.626363 -0.6549,-1.065651 -1.281252,-1.28111 -0.100909,-0.03471 -0.203042,-0.06322 -0.226915,-0.06322 z m 13.798149,0 c -0.08,0 -0.408298,0.125251 -0.610015,0.232669 -0.255885,0.136269 -0.592173,0.472546 -0.728438,0.728441 -0.107421,0.20172 -0.232676,0.529988 -0.232676,0.610007 0,0.03517 0.1531,0.04339 0.807328,0.04339 h 0.807201 v -0.80719 c 0,-0.654228 -0.0082,-0.807319 -0.0434,-0.807319 z"
       id="circle4732"
       inkscape:connector-curvature="0" />
    <path
       style="fill:#e4e4e4;fill-opacity:1;stroke:none;stroke-width:0.06858351px;stroke-linecap:butt;stroke-linejoin:miter;stroke-opacity:1"
       d="m 176.66387,31.299667 c -0.55361,-0.08474 -2.52872,-0.536935 -2.52872,-0.536935 l -3.23883,-1.073816 0.88332,1.350941 0.81404,1.680039 c 0,0 -0.12124,3.931644 -0.13856,4.035563 -0.0173,0.103918 0.052,2.372838 0.052,2.372838 l 1.00456,0.883295 1.24704,0.84869 v 4.936199 l -7.4649,-1.247049 c 0,0 -2.52871,-12.730172 -2.44211,-12.782118 0.0866,-0.05197 4.98815,-3.117611 4.98815,-3.117611 l 2.26891,-2.73654 c 0,0 3.37739,-1.97448 3.46399,-1.939849 0.0866,0.03466 4.64174,4.018247 4.64174,4.018247 l -4.11545,0.807112 h -0.28381 v 1.617673 l 0.26184,-0.01607 z"
       id="path5852"
       inkscape:connector-curvature="0"
       inkscape:export-filename="C:\Users\Iteza\Desktop\IKONY\A01_soc_syst.png"
       inkscape:export-xdpi="59.120209"
       inkscape:export-ydpi="59.120209" />
    <path
       style="opacity:1;fill:#000000;fill-opacity:1;stroke:none;stroke-width:0.5184266;stroke-miterlimit:4;stroke-dasharray:none;stroke-dashoffset:0;stroke-opacity:1"
       d="M 175.02162,22.764473 A 13.52075,13.52075 0 0 0 161.50089,36.28522 13.52075,13.52075 0 0 0 175.02162,49.805941 13.52075,13.52075 0 0 0 188.54235,36.28522 13.52075,13.52075 0 0 0 175.02162,22.764473 Z m 0.7729,2.442489 v 0.0026 c 0.0135,-0.0026 0.0268,0 0.0403,0 0.12948,0.0093 0.25719,0.08212 0.33422,0.231063 0.0863,0.167011 0.0656,0.301361 -0.071,0.460933 -0.0669,0.0782 -0.0737,0.328216 -0.0398,1.495454 l 0.0407,1.401669 h 0.4975 0.4975 l -0.24018,0.783343 -0.24004,0.783212 -0.26844,0.01737 -0.26831,0.01763 0.0166,0.407354 0.0166,0.407353 1.05394,0.185908 c 0.57968,0.102286 1.11148,0.199776 1.18173,0.217143 0.33854,0.08266 0.81935,1.64476 0.98628,3.20455 0.1,0.93392 0.0434,2.737708 -0.10769,3.433306 -0.0647,0.297681 -0.16644,0.682301 -0.22611,0.854626 l -0.1085,0.313182 -1.36993,-0.021 -1.37007,-0.021 -0.0198,0.580145 c -0.0109,0.319091 -0.0109,0.706822 0,0.861599 l 0.0197,0.281298 0.49307,-0.02463 c 0.81295,-0.04046 1.31915,-0.294077 1.4333,-0.717995 0.0335,-0.124474 0.0844,-0.226371 0.11291,-0.226371 0.0285,0 0.34151,-0.03686 0.69562,-0.08212 1.16434,-0.148608 3.60232,-0.435064 3.80572,-0.447273 0.17044,-0.01011 0.20217,0.0078 0.21847,0.122841 0.0105,0.07411 -0.009,0.162735 -0.0429,0.196795 -0.034,0.03401 -0.70691,0.321865 -1.49531,0.639738 l -1.43356,0.577865 -0.0994,0.491079 c -0.22574,1.09935 -0.44191,3.369176 -0.44191,3.369176 0.0314,0.152781 -9.1339,2.042344 -10.25953,-1.813714 -0.16212,-0.317433 -0.29812,-0.66185 -0.38109,-0.989521 l -0.10462,-0.413108 h -0.32926 -0.32925 v -1.110858 -1.110988 h 1.64493 1.64507 l 0.0356,-0.178028 c 0.0488,-0.244101 0.0448,-0.563011 -0.007,-0.563011 -0.0235,0 -0.93564,0 -2.0271,-0.0039 -1.56588,-0.0026 -1.97865,-0.01814 -1.95704,-0.07447 0.0242,-0.06317 1.17728,-1.855345 3.37948,-5.252516 0.72894,-1.12452 0.79684,-1.29306 0.61712,-1.530681 -0.31832,-0.420832 0.32654,-0.923058 0.65275,-0.508343 0.13978,0.177665 0.14902,0.300661 0.0335,0.451394 -0.0726,0.09477 -0.083,0.48504 -0.0718,2.731304 0.007,1.441382 0.0208,3.139695 0.0301,3.774224 l 0.017,1.153733 h 0.30983 c 0.292,0 0.31198,0.0091 0.34372,0.15659 0.14251,0.662446 0.72237,1.18419 1.46021,1.313667 0.24452,0.04303 1.13281,0.05602 1.31408,0.01944 0.0235,-0.0047 0.0427,-0.389235 0.0427,-0.85434 v -0.845658 l -0.86359,-0.03738 c -0.47499,-0.02022 -1.06463,-0.03738 -1.31032,-0.03738 -0.42952,0 -0.50641,-0.02818 -0.39529,-0.145185 0.0878,-0.09246 0.22992,-0.578176 0.32068,-1.096265 0.11447,-0.653244 0.11324,-2.471988 -0.002,-3.454899 -0.17007,-1.448484 -0.50486,-2.814279 -0.88074,-3.592852 -0.12101,-0.250685 -0.21572,-0.458652 -0.21057,-0.462539 0.005,-0.0036 0.72713,0.117397 1.60448,0.269244 0.87735,0.151795 1.64006,0.27741 1.69489,0.27741 0.0839,0.0026 0.0997,-0.05221 0.0997,-0.337314 v -0.33874 l -0.26884,-0.01737 -0.26884,-0.01763 -0.20642,-0.655161 c -0.11359,-0.360333 -0.22514,-0.712863 -0.24781,-0.783369 -0.0407,-0.125588 -0.0347,-0.12818 0.47526,-0.12818 h 0.51665 v -0.398774 -0.398774 h -0.37024 c -0.3186,0 -0.37038,0.014 -0.37038,0.102467 0,0.163512 -0.11876,0.239384 -0.37533,0.239384 -0.37523,0 -1.14387,-0.164057 -1.49343,-0.318677 -0.32116,-0.141997 -0.69533,-0.393823 -0.69468,-0.467621 0,-0.02203 0.19178,-0.08567 0.42556,-0.141738 0.2338,-0.05607 0.63688,-0.187204 0.89588,-0.291459 0.43417,-0.174736 0.47399,-0.204261 0.50982,-0.379489 0.0214,-0.104488 0.0805,-0.220512 0.13141,-0.257735 0.0509,-0.03725 0.34151,-0.111073 0.64578,-0.163953 0.30428,-0.05285 0.59368,-0.10721 0.64324,-0.120948 0.10288,-0.02846 0.10643,-0.219943 0.006,-0.32044 -0.0371,-0.03709 -0.0675,-0.147233 -0.0675,-0.244723 0,-0.263257 0.19428,-0.421481 0.39636,-0.427443 z m 0.5547,7.713254 c -1.0528,0 -1.90625,0.998309 -1.90627,2.229883 -3e-5,1.231626 0.85344,2.230037 1.90627,2.230037 1.05284,0 1.90644,-0.998411 1.90641,-2.230037 -2e-5,-1.231574 -0.85361,-2.229883 -1.90641,-2.229883 z m -0.31639,1.048155 c 0.14698,0 0.26614,0.133003 0.26616,0.296981 2e-5,0.164004 -0.11915,0.296981 -0.26616,0.296981 -0.14702,0 -0.26619,-0.132977 -0.26617,-0.296981 3e-5,-0.163978 0.11919,-0.296981 0.26617,-0.296981 z m 1.06465,0 c 0.14698,0 0.26614,0.133003 0.26617,0.296981 2e-5,0.164004 -0.11915,0.296981 -0.26617,0.296981 -0.14702,0 -0.26619,-0.132977 -0.26617,-0.296981 3e-5,-0.163978 0.11919,-0.296981 0.26617,-0.296981 z m 2.64341,0.254236 c 0.006,-0.0067 0.0235,0.01529 0.0564,0.06161 0.26745,0.377182 3.01571,4.663507 2.99919,4.677764 -0.0182,0.01581 -2.67995,0.264449 -2.80495,0.261598 -0.0274,0 -0.033,-0.08419 -0.0125,-0.186064 0.0205,-0.101767 0.051,-0.377414 0.068,-0.612417 0.017,-0.235003 0.0392,-0.529832 0.0494,-0.655161 0.0495,-0.608892 -0.12361,-2.34811 -0.34198,-3.436417 -0.0138,-0.06854 -0.0195,-0.104152 -0.0137,-0.110917 z m -1.97686,1.183076 c 0.0885,-0.0029 0.14685,0.09129 0.10475,0.169189 -0.45641,0.898148 -1.12161,1.13525 -1.68258,1.006784 -0.56097,-0.12844 -1.01636,-0.578746 -1.1347,-1.029569 -0.0195,-0.06986 0.03,-0.140001 0.10234,-0.145185 0.74824,0.704022 1.5598,1.198135 2.61019,0 z m -8.41327,4.924352 c -0.0338,-0.0054 -0.0677,0.01192 -0.12364,0.04902 -0.16363,0.108455 -0.1903,0.270386 -0.0601,0.365568 0.13605,0.09946 0.24454,0.07476 0.34653,-0.07916 0.0741,-0.111825 0.0701,-0.136087 -0.0402,-0.246357 -0.0552,-0.05516 -0.0888,-0.08336 -0.12257,-0.08907 z m 1.01549,0.01167 c -0.0515,-0.0029 -0.0953,0.01996 -0.16129,0.07338 -0.11366,0.09207 -0.12111,0.122529 -0.0613,0.253718 0.0734,0.1611 0.27902,0.202549 0.40079,0.08077 0.11575,-0.115764 0.0796,-0.307012 -0.071,-0.3756 -0.0427,-0.0197 -0.0763,-0.02968 -0.10716,-0.03227 z m 1.0605,0.02691 c -0.22248,0.0026 -0.34081,0.273132 -0.14467,0.387394 0.14707,0.08564 0.21276,0.07463 0.33073,-0.05573 0.12677,-0.140053 0.0589,-0.299002 -0.14025,-0.328579 -0.0157,-0.0029 -0.031,-0.0029 -0.0458,-0.0029 z"
       id="circle4870"
       inkscape:connector-curvature="0"
       inkscape:export-filename="C:\Users\Iteza\Desktop\IKONY\A01_soc_syst.png"
       inkscape:export-xdpi="59.120209"
       inkscape:export-ydpi="59.120209" />
    <path
       sodipodi:nodetypes="cccccc"
       inkscape:connector-curvature="0"
       id="path5877"
       d="m 120.46457,70.421848 h 10.55936 v 16.48651 h -10.55936 l -0.88331,-9.286472 z"
       style="opacity:1;fill:#e4e4e4;fill-opacity:1;stroke:none;stroke-width:0.30464217;stroke-linecap:round;stroke-linejoin:round;stroke-miterlimit:4;stroke-dasharray:none;stroke-dashoffset:0;stroke-opacity:1"
       inkscape:export-filename="C:\Users\Iteza\Desktop\IKONY\B03_mista.png"
       inkscape:export-xdpi="59.120209"
       inkscape:export-ydpi="59.120209" />
    <path
       style="opacity:1;fill:#f3385f;fill-opacity:1;stroke:none;stroke-width:0.5184266;stroke-miterlimit:4;stroke-dasharray:none;stroke-dashoffset:0;stroke-opacity:1"
       d="m 130.90915,64.996617 a 13.52075,13.52075 0 0 0 -13.52073,13.520877 13.52075,13.52075 0 0 0 13.52073,13.52072 13.52075,13.52075 0 0 0 13.52072,-13.52072 13.52075,13.52075 0 0 0 -13.52072,-13.520877 z m -0.11708,5.836162 c 1.41124,-0.01763 2.57379,1.116535 2.59131,2.527822 0.0137,1.099246 -0.67122,2.047241 -1.64159,2.421182 l 0.0117,0.954941 1.91658,-0.02359 0.0221,1.775793 -1.91645,0.02411 0.0722,5.812055 c 1.08773,-0.176861 2.09661,-0.648811 2.92283,-1.344462 l -1.11702,-0.693343 3.9536,-2.117229 -0.14307,4.482291 -1.10618,-0.68663 c -1.41108,1.376604 -3.32442,2.210545 -5.37054,2.235947 -2.04783,0.0254 -3.98233,-0.762398 -5.42734,-2.105745 l -1.09479,0.717995 -0.25437,-4.477365 4.0049,2.018001 -1.09372,0.717166 c 0.84161,0.67468 1.8596,1.122212 2.94962,1.273489 l -0.0721,-5.810577 -1.91659,0.02385 -0.0221,-1.775948 1.91658,-0.02385 -0.0118,-0.954968 c -0.97937,-0.349549 -1.6878,-1.280384 -1.70146,-2.379656 -0.0175,-1.411234 1.11639,-2.573806 2.52768,-2.591433 z m 0.0189,1.509503 c -0.5793,0.0073 -1.04456,0.484314 -1.03733,1.063578 0.007,0.57903 0.48419,1.044318 1.06331,1.03706 0.57907,-0.007 1.04438,-0.484107 1.03733,-1.063319 -0.007,-0.579082 -0.4843,-1.044318 -1.06331,-1.037319 z"
       id="circle4396"
       inkscape:connector-curvature="0"
       inkscape:export-filename="C:\Users\Iteza\Desktop\IKONY\B03_mista.png"
       inkscape:export-xdpi="59.120209"
       inkscape:export-ydpi="59.120209" />
    <path
       style="opacity:1;fill:#e4e4e4;fill-opacity:1;stroke:none;stroke-width:0.30464217;stroke-linecap:round;stroke-linejoin:round;stroke-miterlimit:4;stroke-dasharray:none;stroke-dashoffset:0;stroke-opacity:1"
       d="m 73.077178,70.421848 h 10.559357 v 16.48651 H 73.077178 L 72.19386,77.621886 Z"
       id="rect5863"
       inkscape:connector-curvature="0"
       sodipodi:nodetypes="cccccc"
       inkscape:export-filename="C:\Users\Iteza\Desktop\IKONY\B02_prihlasit_se.png"
       inkscape:export-xdpi="59.120209"
       inkscape:export-ydpi="59.120209" />
    <path
       style="opacity:1;fill:#f3385f;fill-opacity:1;stroke:none;stroke-width:0.5184266;stroke-miterlimit:4;stroke-dasharray:none;stroke-dashoffset:0;stroke-opacity:1"
       d="M 83.528731,64.996617 A 13.52075,13.52075 0 0 0 70.008,78.517494 13.52075,13.52075 0 0 0 83.528731,92.038214 13.52075,13.52075 0 0 0 97.049468,78.517494 13.52075,13.52075 0 0 0 83.528731,64.996617 Z m -0.0217,6.578653 v 0 c 0.775231,0 0.830371,0.0047 1.151586,0.08575 1.022264,0.257969 1.805239,0.69 2.504368,1.382229 0.650869,0.644482 1.051107,1.324658 1.311661,2.228846 0.117877,0.409064 0.204695,0.976301 0.205214,1.340884 2.59e-4,0.290449 0.09173,0.500308 0.296436,0.680461 0.192062,0.169059 0.323234,0.203197 0.760584,0.203197 0.291687,0 0.390645,-0.01296 0.501243,-0.06322 0.0758,-0.0344 0.693701,-0.461218 1.373015,-0.948513 1.32469,-0.950198 1.45015,-1.021638 1.73602,-0.988173 0.51134,0.05988 0.85612,0.465106 0.81644,0.959374 -0.0199,0.247445 0.06,0.09228 -1.93266,3.755197 -1.340676,2.464367 -1.642649,2.997906 -1.7304,3.057214 l -0.106361,0.0718 h -6.907378 -6.907244 l -0.09591,-0.08774 c -0.104473,-0.0957 -3.485768,-5.897932 -3.582016,-6.146673 -0.07175,-0.185389 -0.07588,-0.46337 -0.0094,-0.623278 0.129143,-0.310512 0.33043,-0.485585 0.653552,-0.568351 0.169658,-0.04433 0.211689,-0.04443 0.375066,-0.0026 0.101197,0.02592 0.880659,0.388223 1.732136,0.805194 1.476253,0.722894 1.558248,0.758899 1.765357,0.772637 0.263355,0.01763 0.452933,-0.04534 0.636137,-0.210844 0.211402,-0.190989 0.254198,-0.313622 0.285052,-0.815511 0.11815,-1.921756 1.131166,-3.49588 2.804691,-4.357972 0.406405,-0.209366 0.685507,-0.312248 1.202622,-0.44354 0.333284,-0.08461 0.375901,-0.0872 1.160161,-0.0872 z m -0.257459,2.202716 c -0.307212,0 -0.590044,0.25911 -0.61658,0.565137 -0.02198,0.21932 0.08125,0.440378 0.248479,0.580301 0.07909,0.07756 0.167289,0.149203 0.224907,0.245112 0.01991,0.121312 -0.001,0.245838 0.01019,0.368394 0.0039,0.311419 5.1e-5,0.622863 0.0016,0.934308 h -5.19e-4 v 1.018449 h 0.0028 c -0.0033,0.436101 0.0077,0.872616 -0.01058,1.308457 -0.06893,0.108947 -0.180762,0.179583 -0.262547,0.27754 -0.108494,0.114028 -0.198308,0.256621 -0.212047,0.416737 -0.02641,0.26756 0.134737,0.545981 0.386454,0.645778 0.197686,0.08056 0.435579,0.05394 0.609615,-0.07006 0.217379,0.157886 0.539617,0.158042 0.751337,-0.01037 0.210388,-0.161308 0.303132,-0.463421 0.208833,-0.712888 -0.05608,-0.154776 -0.17239,-0.277436 -0.292686,-0.385502 -0.05271,-0.05166 -0.105932,-0.104463 -0.145203,-0.167582 -0.0147,-0.141115 -0.003,-0.28376 -0.01205,-0.425446 -0.0036,-0.291926 0.0021,-0.583904 -0.0059,-0.875778 h 0.005 v -1.019642 h -0.0013 c 0.0038,-0.437007 -0.0093,-0.874611 0.01581,-1.311127 0.05973,-0.07564 0.135652,-0.136942 0.198114,-0.210429 0.107507,-0.111332 0.213437,-0.234899 0.255447,-0.387265 0.07279,-0.276243 -0.07144,-0.592743 -0.328449,-0.717969 -0.205175,-0.10213 -0.46549,-0.0816 -0.651276,0.05291 -0.108053,-0.0767 -0.24021,-0.119238 -0.37279,-0.119083 -0.0021,0 -0.0044,-2.6e-5 -0.0064,0 z m 2.945876,2.205128 c -0.0847,0 -0.169204,0.01763 -0.24674,0.05384 -0.151437,0.0696 -0.261209,0.199646 -0.377207,0.31453 -0.0386,0.03777 -0.07861,0.07375 -0.122701,0.105007 -0.162535,0.0091 -0.325611,0.0026 -0.488257,0.0091 -0.129669,2.6e-4 -0.259322,0.0029 -0.388996,0.0029 v 1.02086 c 0.290923,0 0.581903,0.0026 0.872564,0.01322 0.09349,0.04845 0.150613,0.141038 0.22839,0.208719 0.10473,0.107081 0.224598,0.210377 0.372655,0.249415 0.276342,0.0746 0.59554,-0.06657 0.722,-0.324302 0.102607,-0.2061 0.08259,-0.466998 -0.04956,-0.655421 0.162224,-0.225697 0.153323,-0.561067 -0.02826,-0.773311 -0.119663,-0.144096 -0.30753,-0.224375 -0.493884,-0.224375 z m -5.136796,1.37e-4 v 2.05e-4 c -0.189884,2.6e-5 -0.380598,0.08525 -0.49616,0.237802 -0.14756,0.185286 -0.183746,0.458678 -0.0714,0.670144 0.01607,0.03092 0.0346,0.06042 0.05438,0.08907 -0.152459,0.208356 -0.16057,0.514875 -0.008,0.725486 0.141235,0.205245 0.41146,0.318418 0.655696,0.258695 0.170749,-0.04127 0.315411,-0.153014 0.429584,-0.282905 0.06228,-0.06361 0.121799,-0.131551 0.196908,-0.180568 0.161812,-0.01478 0.325417,0.0029 0.487855,-0.008 0.12659,0 0.253169,-0.0026 0.379756,-0.0026 v -1.020601 c -0.292414,-0.0026 -0.584892,-0.0041 -0.877121,-0.01374 -0.09741,-0.07447 -0.173821,-0.171755 -0.265492,-0.252629 -0.102062,-0.0991 -0.225497,-0.18539 -0.368502,-0.209237 -0.03866,-0.0075 -0.07807,-0.01115 -0.117476,-0.01115 z"
       id="circle4400"
       inkscape:connector-curvature="0"
       inkscape:export-filename="C:\Users\Iteza\Desktop\IKONY\B02_prihlasit_se.png"
       inkscape:export-xdpi="59.120209"
       inkscape:export-ydpi="59.120209" />
    <rect
       style="opacity:1;fill:#e4e4e4;fill-opacity:1;stroke:none;stroke-width:0.30464217;stroke-linecap:round;stroke-linejoin:round;stroke-miterlimit:4;stroke-dasharray:none;stroke-dashoffset:0;stroke-opacity:1"
       id="rect5801"
       width="10.559358"
       height="16.486496"
       x="26.832293"
       y="70.421852"
       inkscape:export-filename="C:\Users\Iteza\Desktop\IKONY\B01_hledate.png"
       inkscape:export-xdpi="59.120209"
       inkscape:export-ydpi="59.120209" />
    <path
       style="opacity:1;fill:#f3385f;fill-opacity:1;stroke:none;stroke-width:0.5184266;stroke-miterlimit:4;stroke-dasharray:none;stroke-dashoffset:0;stroke-opacity:1"
       d="M 37.231639,64.996617 A 13.52075,13.52075 0 0 0 23.710908,78.517494 13.52075,13.52075 0 0 0 37.231639,92.038214 13.52075,13.52075 0 0 0 50.752496,78.517494 13.52075,13.52075 0 0 0 37.231639,64.996617 Z m 3.448866,6.854196 c 0.402906,-0.0075 0.823479,0.08295 1.232761,0.287468 0.651927,0.325779 0.534983,0.194721 3.012178,3.377342 0.990503,1.272555 1.93545,2.481967 2.099967,2.687601 0.164515,0.205634 0.380481,0.591317 0.479952,0.857166 0.731725,1.955713 -0.123663,4.088856 -2.012631,5.018784 -0.59458,0.292704 -0.679659,0.30862 -1.654172,0.30862 -0.961419,0 -1.067531,-0.01892 -1.65404,-0.296955 -0.846152,-0.400848 -1.486845,-1.019642 -1.890066,-1.825639 -0.179511,-0.358829 -0.326306,-0.730567 -0.326306,-0.826217 0,-0.09565 -0.02535,-0.17401 -0.05626,-0.17401 -0.03089,0 -0.544659,0.216495 -1.141806,0.481152 -0.718148,0.318262 -1.21198,0.481307 -1.458606,0.481307 -0.246629,0 -0.740461,-0.163045 -1.458606,-0.481307 -0.59715,-0.264657 -1.111048,-0.481152 -1.141944,-0.481152 -0.0309,0 -0.05613,0.07836 -0.05613,0.17401 0,0.09565 -0.14693,0.467388 -0.32644,0.826217 -0.404121,0.807786 -1.04597,1.426813 -1.889932,1.822684 -0.541004,0.25377 -0.747885,0.297939 -1.51232,0.322409 -0.674911,0.02152 -0.998352,-0.01192 -1.35975,-0.140779 -1.387076,-0.494734 -2.349522,-1.601523 -2.647698,-3.044719 -0.200735,-0.971557 0.06977,-2.244839 0.631451,-2.971595 2.482245,-3.211756 4.470629,-5.693879 4.681361,-5.843938 1.400519,-0.997271 3.114998,-0.617316 3.87872,0.859578 0.283891,0.548987 0.271073,1.313874 -0.04126,2.473154 l -0.282506,1.048569 h 1.523842 1.523705 l -0.282634,-1.048569 c -0.219424,-0.813904 -0.272734,-1.174574 -0.237766,-1.610778 0.108489,-1.353404 1.158222,-2.257877 2.366936,-2.280403 z m 3.113183,6.107947 c -0.680383,0 -1.372685,0.274714 -1.90105,0.892004 -1.148019,1.341196 -0.593222,3.415706 1.087825,4.067446 0.499665,0.19371 1.558266,0.09534 2.045312,-0.190081 0.865532,-0.507255 1.303739,-1.245702 1.310855,-2.208861 0.01146,-1.552843 -1.244037,-2.559446 -2.542942,-2.560508 z m -12.964563,0.0047 c -0.38938,-0.0049 -0.790253,0.08191 -1.175431,0.278888 -1.51527,0.77497 -1.860514,2.693278 -0.713296,3.963112 0.788102,0.872356 1.926276,1.078638 2.997584,0.543311 0.834633,-0.417074 1.302075,-1.106322 1.387209,-2.045193 0.138967,-1.532521 -1.105415,-2.72231 -2.496066,-2.740118 z m 6.46614,0.414042 c -0.75119,-0.0039 -1.206332,0.80465 -0.832513,1.479097 0.254014,0.458289 0.880317,0.606015 1.362428,0.321217 0.853037,-0.503911 0.472994,-1.794974 -0.529915,-1.800314 z"
       id="circle4404"
       inkscape:connector-curvature="0"
       inkscape:export-filename="C:\Users\Iteza\Desktop\IKONY\B01_hledate.png"
       inkscape:export-xdpi="59.120209"
       inkscape:export-ydpi="59.120209" />
    <path
       style="opacity:1;fill:#e4e4e4;fill-opacity:1;stroke:none;stroke-width:0.31488013;stroke-linecap:round;stroke-linejoin:round;stroke-miterlimit:4;stroke-dasharray:none;stroke-dashoffset:0;stroke-opacity:1"
       d="m 164.66728,69.709271 10.52568,-0.8426 1.4055,17.557061 -10.52568,0.842599 -1.67219,-9.818999 z"
       id="path5888"
       inkscape:connector-curvature="0"
       sodipodi:nodetypes="cccccc"
       inkscape:export-filename="C:\Users\Iteza\Desktop\IKONY\B04_formular.png"
       inkscape:export-xdpi="59.120209"
       inkscape:export-ydpi="59.120209" />
    <path
       style="opacity:1;fill:#f3385f;fill-opacity:1;stroke:none;stroke-width:0.5184266;stroke-miterlimit:4;stroke-dasharray:none;stroke-dashoffset:0;stroke-opacity:1"
       d="m 174.99785,64.408825 a 13.52075,13.52075 0 0 0 -13.52073,13.520747 13.52075,13.52075 0 0 0 13.52073,13.520723 13.52075,13.52075 0 0 0 13.52073,-13.520723 13.52075,13.52075 0 0 0 -13.52073,-13.520747 z m 4.66743,4.913777 c 0.70007,0.01737 1.29073,0.240394 1.36952,1.05181 0.17138,0.706823 0.29921,1.670267 0.39811,2.683169 0.0989,1.012927 0.16882,2.075287 0.22424,2.979916 0.0554,0.904654 0.0964,1.651551 0.1373,2.033528 0.0409,0.381951 0.0512,1.050384 0.0435,1.838237 -0.008,0.787827 -0.0332,1.695021 -0.0639,2.554443 -0.0825,2.85202 0.54719,3.1947 -3.2399,3.369565 l -3.09684,0.122712 -3.09671,0.122712 c -2.97457,0.04757 -3.21521,0.379047 -2.77616,-2.714689 0.0784,-0.75711 0.15525,-1.561942 0.20896,-2.273042 0.0537,-0.711048 0.0845,-1.328338 0.0709,-1.710289 -0.0136,-0.381977 -0.11603,-0.910746 -0.26269,-1.540867 -0.14664,-0.63007 -0.33758,-1.361414 -0.52857,-2.149241 -0.19098,-0.787801 -0.38206,-1.63193 -0.52871,-2.4871 -0.27351,-1.596521 -0.73377,-2.48386 1.47669,-2.767724 1.05042,-0.128751 2.46243,-0.300921 3.90845,-0.474853 1.44605,-0.173932 2.92617,-0.349601 4.11301,-0.48517 0.4876,-0.0556 1.09829,-0.166597 1.64279,-0.153117 z m -4.44829,2.959283 -4.5253,0.619909 c -0.0976,0.227252 -0.18568,0.457122 0.10823,0.791144 l 4.52531,-0.619934 c 0.20839,-0.32482 0.1185,-0.575091 -0.10824,-0.791119 z m 3.81791,1.323569 -8.04504,1.138205 c -0.1067,0.263491 -0.10775,0.527059 0.11199,0.790575 l 8.0449,-1.13818 c 0.13369,-0.28249 0.0817,-0.544477 -0.11185,-0.7906 z m 0.4912,1.93723 -8.04504,1.13818 c -0.18611,0.324431 -0.10083,0.574805 0.11199,0.790445 l 8.0449,-1.13818 c 0.17429,-0.381043 0.0339,-0.587221 -0.11185,-0.790445 z m 0.27528,2.186102 -8.10425,0.579989 c -0.13656,0.304265 -0.0972,0.564619 0.0569,0.796226 l 8.10424,-0.580145 c 0.15634,-0.287312 0.0748,-0.544789 -0.0569,-0.79607 z m 0.32871,4.298248 a 0.18155236,0.18155236 0 0 0 -0.0362,0.0026 0.18155236,0.18155236 0 0 0 -0.11654,0.07087 l -0.24607,0.322151 c -0.0563,-0.04409 -0.11821,-0.09342 -0.1653,-0.128985 -0.046,-0.03473 -0.0856,-0.06384 -0.11855,-0.0864 -0.0165,-0.0114 -0.0311,-0.02074 -0.0477,-0.03028 -0.008,-0.0047 -0.0168,-0.0096 -0.0311,-0.01529 -0.0143,-0.006 -0.0244,-0.02333 -0.0988,-0.01374 a 0.18155236,0.18155236 0 0 0 -0.0391,0.351753 0.18155236,0.18155236 0 0 0 7.8e-4,0 c 0.004,0.0029 0.005,0.0031 0.011,0.0075 0.0239,0.01633 0.0611,0.0435 0.10462,0.07634 0.0452,0.03417 0.10752,0.08396 0.16355,0.127792 l -0.2537,0.331819 a 0.18155236,0.18155236 0 1 0 0.28853,0.220358 l 0.24968,-0.326583 c 0.14442,0.116464 0.31627,0.255299 0.31627,0.255299 a 0.18155236,0.18155236 0 1 0 0.22986,-0.280754 c 0,0 -0.17541,-0.141867 -0.3255,-0.262816 l 0.25022,-0.327387 a 0.18155236,0.18155236 0 0 0 -0.13542,-0.293896 v 0 z m -1.3355,0.250478 a 0.18155236,0.18155236 0 0 0 -0.0362,0.0026 0.18155236,0.18155236 0 0 0 -0.11654,0.07084 l -0.2462,0.322151 c -0.0563,-0.04409 -0.11808,-0.09329 -0.16517,-0.128855 -0.046,-0.03471 -0.0856,-0.06385 -0.11854,-0.0864 -0.0165,-0.01115 -0.0309,-0.02074 -0.0476,-0.03015 -0.008,-0.0044 -0.0168,-0.0096 -0.0311,-0.01555 -0.0143,-0.0062 -0.0245,-0.02359 -0.099,-0.014 a 0.18155236,0.18155236 0 0 0 -0.0393,0.351908 0.18155236,0.18155236 0 0 0 7.8e-4,-1.37e-4 c 0.004,0.0029 0.005,0.0031 0.0111,0.0075 0.024,0.01633 0.0612,0.04357 0.10475,0.07649 0.0452,0.03411 0.10739,0.0838 0.16342,0.127636 l -0.25371,0.331819 a 0.18155236,0.18155236 0 1 0 0.28854,0.220332 l 0.24968,-0.326557 c 0.14441,0.116464 0.31626,0.255299 0.31626,0.255299 a 0.18155236,0.18155236 0 1 0 0.22987,-0.280884 c 0,0 -0.17528,-0.141738 -0.32537,-0.262686 l 0.25009,-0.327387 a 0.18155236,0.18155236 0 0 0 -0.13543,-0.293896 z m -1.36645,0.271267 v 1.37e-4 a 0.18155236,0.18155236 0 0 0 -0.0364,0.0026 0.18155236,0.18155236 0 0 0 -0.11653,0.071 l -0.24608,0.322021 c -0.0563,-0.04409 -0.11821,-0.09342 -0.1653,-0.128985 -0.046,-0.03471 -0.0855,-0.06372 -0.11841,-0.08627 -0.0165,-0.0114 -0.0312,-0.021 -0.0478,-0.03028 -0.008,-0.0047 -0.0166,-0.0096 -0.0308,-0.01555 -0.0143,-0.0062 -0.0246,-0.02359 -0.0991,-0.014 a 0.18155236,0.18155236 0 0 0 -0.0391,0.351753 0.18155236,0.18155236 0 0 0 7.8e-4,0 c 0.004,0.0029 0.005,0.0031 0.0111,0.0075 0.0239,0.01633 0.0609,0.04344 0.10448,0.07636 0.0452,0.03411 0.10753,0.08396 0.16355,0.127792 l -0.25356,0.331793 a 0.18155236,0.18155236 0 1 0 0.28853,0.220358 l 0.24955,-0.326583 c 0.14441,0.116438 0.31639,0.255325 0.31639,0.255325 a 0.18155236,0.18155236 0 1 0 0.22974,-0.280909 c 0,0 -0.17527,-0.141738 -0.32538,-0.262687 l 0.25023,-0.327361 a 0.18155236,0.18155236 0 0 0 -0.13556,-0.293896 z"
       id="circle4909"
       inkscape:connector-curvature="0"
       inkscape:export-filename="C:\Users\Iteza\Desktop\IKONY\B04_formular.png"
       inkscape:export-xdpi="59.120209"
       inkscape:export-ydpi="59.120209" />
    <path
       inkscape:connector-curvature="0"
       id="path5875"
       d="M 83.528731,64.996617 A 13.52075,13.52075 0 0 0 70.008,78.517494 13.52075,13.52075 0 0 0 83.528731,92.038214 13.52075,13.52075 0 0 0 97.049468,78.517494 13.52075,13.52075 0 0 0 83.528731,64.996617 Z m -0.0217,6.578653 v 0 c 0.775231,0 0.830371,0.0047 1.151586,0.08575 1.022264,0.257969 1.805239,0.69 2.504368,1.382229 0.650869,0.644482 1.051107,1.324658 1.311661,2.228846 0.117877,0.409064 0.204695,0.976301 0.205214,1.340884 2.59e-4,0.290449 0.09173,0.500308 0.296436,0.680461 0.192062,0.169059 0.323234,0.203197 0.760584,0.203197 0.291687,0 0.390645,-0.01296 0.501243,-0.06322 0.0758,-0.0344 0.693701,-0.461218 1.373015,-0.948513 1.32469,-0.950198 1.45015,-1.021638 1.73602,-0.988173 0.51134,0.05988 0.85612,0.465106 0.81644,0.959374 -0.0199,0.247445 0.06,0.09228 -1.93266,3.755197 -1.340676,2.464367 -1.642649,2.997906 -1.7304,3.057214 l -0.106361,0.0718 h -6.907378 -6.907244 l -0.09591,-0.08774 c -0.104473,-0.0957 -3.485768,-5.897932 -3.582016,-6.146673 -0.07175,-0.185389 -0.07588,-0.46337 -0.0094,-0.623278 0.129143,-0.310512 0.33043,-0.485585 0.653552,-0.568351 0.169658,-0.04433 0.211689,-0.04443 0.375066,-0.0026 0.101197,0.02592 0.880659,0.388223 1.732136,0.805194 1.476253,0.722894 1.558248,0.758899 1.765357,0.772637 0.263355,0.01763 0.452933,-0.04534 0.636137,-0.210844 0.211402,-0.190989 0.254198,-0.313622 0.285052,-0.815511 0.11815,-1.921756 1.131166,-3.49588 2.804691,-4.357972 0.406405,-0.209366 0.685507,-0.312248 1.202622,-0.44354 0.333284,-0.08461 0.375901,-0.0872 1.160161,-0.0872 z m -0.257459,2.202716 c -0.307212,0 -0.590044,0.25911 -0.61658,0.565137 -0.02198,0.21932 0.08125,0.440378 0.248479,0.580301 0.07909,0.07756 0.167289,0.149203 0.224907,0.245112 0.01991,0.121312 -0.001,0.245838 0.01019,0.368394 0.0039,0.311419 5.1e-5,0.622863 0.0016,0.934308 h -5.19e-4 v 1.018449 h 0.0028 c -0.0033,0.436101 0.0077,0.872616 -0.01058,1.308457 -0.06893,0.108947 -0.180762,0.179583 -0.262547,0.27754 -0.108494,0.114028 -0.198308,0.256621 -0.212047,0.416737 -0.02641,0.26756 0.134737,0.545981 0.386454,0.645778 0.197686,0.08056 0.435579,0.05394 0.609615,-0.07006 0.217379,0.157886 0.539617,0.158042 0.751337,-0.01037 0.210388,-0.161308 0.303132,-0.463421 0.208833,-0.712888 -0.05608,-0.154776 -0.17239,-0.277436 -0.292686,-0.385502 -0.05271,-0.05166 -0.105932,-0.104463 -0.145203,-0.167582 -0.0147,-0.141115 -0.003,-0.28376 -0.01205,-0.425446 -0.0036,-0.291926 0.0021,-0.583904 -0.0059,-0.875778 h 0.005 v -1.019642 h -0.0013 c 0.0038,-0.437007 -0.0093,-0.874611 0.01581,-1.311127 0.05973,-0.07564 0.135652,-0.136942 0.198114,-0.210429 0.107507,-0.111332 0.213437,-0.234899 0.255447,-0.387265 0.07279,-0.276243 -0.07144,-0.592743 -0.328449,-0.717969 -0.205175,-0.10213 -0.46549,-0.0816 -0.651276,0.05291 -0.108053,-0.0767 -0.24021,-0.119238 -0.37279,-0.119083 -0.0021,0 -0.0044,-2.6e-5 -0.0064,0 z m 2.945876,2.205128 c -0.0847,0 -0.169204,0.01763 -0.24674,0.05384 -0.151437,0.0696 -0.261209,0.199646 -0.377207,0.31453 -0.0386,0.03777 -0.07861,0.07375 -0.122701,0.105007 -0.162535,0.0091 -0.325611,0.0026 -0.488257,0.0091 -0.129669,2.6e-4 -0.259322,0.0029 -0.388996,0.0029 v 1.02086 c 0.290923,0 0.581903,0.0026 0.872564,0.01322 0.09349,0.04845 0.150613,0.141038 0.22839,0.208719 0.10473,0.107081 0.224598,0.210377 0.372655,0.249415 0.276342,0.0746 0.59554,-0.06657 0.722,-0.324302 0.102607,-0.2061 0.08259,-0.466998 -0.04956,-0.655421 0.162224,-0.225697 0.153323,-0.561067 -0.02826,-0.773311 -0.119663,-0.144096 -0.30753,-0.224375 -0.493884,-0.224375 z m -5.136796,1.37e-4 v 2.05e-4 c -0.189884,2.6e-5 -0.380598,0.08525 -0.49616,0.237802 -0.14756,0.185286 -0.183746,0.458678 -0.0714,0.670144 0.01607,0.03092 0.0346,0.06042 0.05438,0.08907 -0.152459,0.208356 -0.16057,0.514875 -0.008,0.725486 0.141235,0.205245 0.41146,0.318418 0.655696,0.258695 0.170749,-0.04127 0.315411,-0.153014 0.429584,-0.282905 0.06228,-0.06361 0.121799,-0.131551 0.196908,-0.180568 0.161812,-0.01478 0.325417,0.0029 0.487855,-0.008 0.12659,0 0.253169,-0.0026 0.379756,-0.0026 v -1.020601 c -0.292414,-0.0026 -0.584892,-0.0041 -0.877121,-0.01374 -0.09741,-0.07447 -0.173821,-0.171755 -0.265492,-0.252629 -0.102062,-0.0991 -0.225497,-0.18539 -0.368502,-0.209237 -0.03866,-0.0075 -0.07807,-0.01115 -0.117476,-0.01115 z"
       style="opacity:1;fill:#f3385f;fill-opacity:1;stroke:none;stroke-width:0.5184266;stroke-miterlimit:4;stroke-dasharray:none;stroke-dashoffset:0;stroke-opacity:1"
       inkscape:export-filename="C:\Users\Iteza\Desktop\IKONY\B02_prihlasit_se.png"
       inkscape:export-xdpi="59.120209"
       inkscape:export-ydpi="59.120209" />
  </g>
</svg>
